<mxfile host="Electron" agent="Mozilla/5.0 (Windows NT 10.0; Win64; x64) AppleWebKit/537.36 (KHTML, like Gecko) draw.io/24.7.17 Chrome/128.0.6613.36 Electron/32.0.1 Safari/537.36" version="24.7.17">
  <diagram name="Vacuum Line Overview" id="9a1g1J2r4Nossw4KGaIC">
    <mxGraphModel dx="1381" dy="805" grid="1" gridSize="10" guides="1" tooltips="1" connect="1" arrows="1" fold="1" page="1" pageScale="1" pageWidth="1169" pageHeight="827" math="0" shadow="0">
      <root>
        <mxCell id="0" />
        <mxCell id="1" parent="0" />
        <mxCell id="LpR9AcmWB4P_39sKmND6-1" value="" style="rounded=1;whiteSpace=wrap;html=1;" parent="1" vertex="1">
          <mxGeometry x="512" y="304" width="120" height="320" as="geometry" />
        </mxCell>
        <mxCell id="LpR9AcmWB4P_39sKmND6-2" value="Throttle Body" style="ellipse;whiteSpace=wrap;html=1;aspect=fixed;" parent="1" vertex="1">
          <mxGeometry x="562" y="434" width="70" height="70" as="geometry" />
        </mxCell>
        <mxCell id="LpR9AcmWB4P_39sKmND6-5" value="Valve&lt;div&gt;Cover&lt;/div&gt;" style="rounded=1;whiteSpace=wrap;html=1;horizontal=0;" parent="1" vertex="1">
          <mxGeometry x="432" y="284" width="70" height="360" as="geometry" />
        </mxCell>
        <mxCell id="LpR9AcmWB4P_39sKmND6-6" value="" style="ellipse;whiteSpace=wrap;html=1;aspect=fixed;" parent="1" vertex="1">
          <mxGeometry x="447" y="359" width="40" height="40" as="geometry" />
        </mxCell>
        <mxCell id="LpR9AcmWB4P_39sKmND6-7" value="" style="ellipse;whiteSpace=wrap;html=1;aspect=fixed;" parent="1" vertex="1">
          <mxGeometry x="587" y="319" width="20" height="20" as="geometry" />
        </mxCell>
        <mxCell id="LpR9AcmWB4P_39sKmND6-8" value="" style="ellipse;whiteSpace=wrap;html=1;aspect=fixed;" parent="1" vertex="1">
          <mxGeometry x="587" y="359" width="20" height="20" as="geometry" />
        </mxCell>
        <mxCell id="LpR9AcmWB4P_39sKmND6-12" style="edgeStyle=orthogonalEdgeStyle;shape=flexArrow;rounded=0;orthogonalLoop=1;jettySize=auto;html=1;exitX=0;exitY=0.5;exitDx=0;exitDy=0;entryX=1;entryY=0.5;entryDx=0;entryDy=0;fillColor=#B3FF66;" parent="1" source="LpR9AcmWB4P_39sKmND6-9" target="LpR9AcmWB4P_39sKmND6-6" edge="1">
          <mxGeometry relative="1" as="geometry" />
        </mxCell>
        <mxCell id="LpR9AcmWB4P_39sKmND6-9" value="" style="ellipse;whiteSpace=wrap;html=1;aspect=fixed;" parent="1" vertex="1">
          <mxGeometry x="587" y="399" width="20" height="20" as="geometry" />
        </mxCell>
        <mxCell id="LpR9AcmWB4P_39sKmND6-10" value="" style="ellipse;whiteSpace=wrap;html=1;aspect=fixed;" parent="1" vertex="1">
          <mxGeometry x="587" y="569" width="20" height="20" as="geometry" />
        </mxCell>
        <mxCell id="LpR9AcmWB4P_39sKmND6-11" value="Fuel Pressure Regulator" style="rounded=1;whiteSpace=wrap;html=1;" parent="1" vertex="1">
          <mxGeometry x="432" y="649" width="70" height="60" as="geometry" />
        </mxCell>
        <mxCell id="LpR9AcmWB4P_39sKmND6-14" value="MAP Sensor" style="shape=trapezoid;perimeter=trapezoidPerimeter;whiteSpace=wrap;html=1;fixedSize=1;" parent="1" vertex="1">
          <mxGeometry x="407" y="129" width="120" height="60" as="geometry" />
        </mxCell>
        <mxCell id="LpR9AcmWB4P_39sKmND6-15" style="edgeStyle=orthogonalEdgeStyle;shape=flexArrow;rounded=0;orthogonalLoop=1;jettySize=auto;html=1;exitX=0;exitY=0.5;exitDx=0;exitDy=0;entryX=0.5;entryY=1;entryDx=0;entryDy=0;fillColor=#B3FF66;strokeColor=default;" parent="1" source="LpR9AcmWB4P_39sKmND6-8" target="LpR9AcmWB4P_39sKmND6-14" edge="1">
          <mxGeometry relative="1" as="geometry">
            <mxPoint x="597" y="419" as="sourcePoint" />
            <mxPoint x="497" y="389" as="targetPoint" />
            <Array as="points">
              <mxPoint x="562" y="369" />
              <mxPoint x="562" y="289" />
              <mxPoint x="467" y="289" />
            </Array>
          </mxGeometry>
        </mxCell>
        <mxCell id="LpR9AcmWB4P_39sKmND6-16" value="4WD Vacuum Motor" style="ellipse;whiteSpace=wrap;html=1;aspect=fixed;fontSize=11;" parent="1" vertex="1">
          <mxGeometry x="562" y="119" width="80" height="80" as="geometry" />
        </mxCell>
        <mxCell id="LpR9AcmWB4P_39sKmND6-17" value="Cowl Vent Vacuum Motor" style="ellipse;whiteSpace=wrap;html=1;aspect=fixed;fontSize=11;" parent="1" vertex="1">
          <mxGeometry x="682" y="119" width="80" height="80" as="geometry" />
        </mxCell>
        <mxCell id="LpR9AcmWB4P_39sKmND6-18" style="edgeStyle=orthogonalEdgeStyle;shape=flexArrow;rounded=0;orthogonalLoop=1;jettySize=auto;html=1;exitX=1;exitY=0.5;exitDx=0;exitDy=0;entryX=0.5;entryY=1;entryDx=0;entryDy=0;fillColor=#B3FF66;" parent="1" source="LpR9AcmWB4P_39sKmND6-7" target="LpR9AcmWB4P_39sKmND6-16" edge="1">
          <mxGeometry relative="1" as="geometry">
            <mxPoint x="597" y="379" as="sourcePoint" />
            <mxPoint x="477" y="199" as="targetPoint" />
            <Array as="points">
              <mxPoint x="662" y="329" />
              <mxPoint x="662" y="249" />
              <mxPoint x="602" y="249" />
            </Array>
          </mxGeometry>
        </mxCell>
        <mxCell id="LpR9AcmWB4P_39sKmND6-19" style="edgeStyle=orthogonalEdgeStyle;shape=flexArrow;rounded=0;orthogonalLoop=1;jettySize=auto;html=1;exitX=1;exitY=0.5;exitDx=0;exitDy=0;entryX=0.5;entryY=1;entryDx=0;entryDy=0;fillColor=#B3FF66;" parent="1" source="LpR9AcmWB4P_39sKmND6-7" target="LpR9AcmWB4P_39sKmND6-17" edge="1">
          <mxGeometry relative="1" as="geometry">
            <mxPoint x="617" y="339" as="sourcePoint" />
            <mxPoint x="612" y="209" as="targetPoint" />
            <Array as="points">
              <mxPoint x="662" y="329" />
              <mxPoint x="662" y="249" />
              <mxPoint x="722" y="249" />
            </Array>
          </mxGeometry>
        </mxCell>
        <mxCell id="LpR9AcmWB4P_39sKmND6-20" value="Brake&lt;div&gt;Booster&lt;/div&gt;" style="ellipse;whiteSpace=wrap;html=1;aspect=fixed;" parent="1" vertex="1">
          <mxGeometry x="682" y="429" width="80" height="80" as="geometry" />
        </mxCell>
        <mxCell id="LpR9AcmWB4P_39sKmND6-21" style="edgeStyle=orthogonalEdgeStyle;shape=flexArrow;rounded=0;orthogonalLoop=1;jettySize=auto;html=1;exitX=1;exitY=0.5;exitDx=0;exitDy=0;entryX=0;entryY=0.5;entryDx=0;entryDy=0;fillColor=#B3FF66;" parent="1" source="LpR9AcmWB4P_39sKmND6-2" target="LpR9AcmWB4P_39sKmND6-20" edge="1">
          <mxGeometry relative="1" as="geometry">
            <mxPoint x="597" y="419" as="sourcePoint" />
            <mxPoint x="497" y="389" as="targetPoint" />
          </mxGeometry>
        </mxCell>
        <mxCell id="LpR9AcmWB4P_39sKmND6-22" style="edgeStyle=orthogonalEdgeStyle;shape=flexArrow;rounded=0;orthogonalLoop=1;jettySize=auto;html=1;exitX=0.5;exitY=1;exitDx=0;exitDy=0;entryX=1;entryY=0.5;entryDx=0;entryDy=0;fillColor=#B3FF66;" parent="1" source="LpR9AcmWB4P_39sKmND6-10" target="LpR9AcmWB4P_39sKmND6-11" edge="1">
          <mxGeometry relative="1" as="geometry">
            <mxPoint x="607" y="429" as="sourcePoint" />
            <mxPoint x="507" y="399" as="targetPoint" />
          </mxGeometry>
        </mxCell>
        <mxCell id="LpR9AcmWB4P_39sKmND6-23" value="Evap&lt;br&gt;Canister" style="ellipse;whiteSpace=wrap;html=1;aspect=fixed;" parent="1" vertex="1">
          <mxGeometry x="682" y="539" width="80" height="80" as="geometry" />
        </mxCell>
        <mxCell id="LpR9AcmWB4P_39sKmND6-24" style="edgeStyle=orthogonalEdgeStyle;shape=flexArrow;rounded=0;orthogonalLoop=1;jettySize=auto;html=1;exitX=1;exitY=0.5;exitDx=0;exitDy=0;entryX=0;entryY=0.5;entryDx=0;entryDy=0;fillColor=#B3FF66;" parent="1" source="LpR9AcmWB4P_39sKmND6-10" target="LpR9AcmWB4P_39sKmND6-23" edge="1">
          <mxGeometry relative="1" as="geometry">
            <mxPoint x="617" y="439" as="sourcePoint" />
            <mxPoint x="517" y="409" as="targetPoint" />
          </mxGeometry>
        </mxCell>
        <mxCell id="LpR9AcmWB4P_39sKmND6-25" value="Key" style="text;html=1;align=center;verticalAlign=middle;whiteSpace=wrap;rounded=0;fontStyle=3" parent="1" vertex="1">
          <mxGeometry x="347" y="624" width="60" height="30" as="geometry" />
        </mxCell>
        <mxCell id="LpR9AcmWB4P_39sKmND6-27" value="Vacuum Line" style="ellipse;whiteSpace=wrap;html=1;aspect=fixed;fontColor=#000000;fillColor=#B3FF66;strokeColor=none;" parent="1" vertex="1">
          <mxGeometry x="352" y="654" width="50" height="50" as="geometry" />
        </mxCell>
        <mxCell id="qv2SqGi6n4BfvQOqcxZJ-1" value="Air Intake" style="ellipse;whiteSpace=wrap;html=1;aspect=fixed;" vertex="1" parent="1">
          <mxGeometry x="682" y="649" width="80" height="80" as="geometry" />
        </mxCell>
        <mxCell id="qv2SqGi6n4BfvQOqcxZJ-2" value="Valve" style="triangle;whiteSpace=wrap;html=1;fontSize=12;" vertex="1" parent="1">
          <mxGeometry x="850" y="270" width="60" height="80" as="geometry" />
        </mxCell>
        <mxCell id="qv2SqGi6n4BfvQOqcxZJ-3" value="Valve" style="triangle;whiteSpace=wrap;html=1;fontSize=12;" vertex="1" parent="1">
          <mxGeometry x="930" y="270" width="60" height="80" as="geometry" />
        </mxCell>
      </root>
    </mxGraphModel>
  </diagram>
</mxfile>
